<?xml version="1.0" encoding="utf-8"?>
<!-- Generator: Adobe Illustrator 16.0.0, SVG Export Plug-In . SVG Version: 6.00 Build 0)  -->
<!DOCTYPE svg PUBLIC "-//W3C//DTD SVG 1.1//EN" "http://www.w3.org/Graphics/SVG/1.1/DTD/svg11.dtd">
<svg version="1.1" id="Layer_1" xmlns="http://www.w3.org/2000/svg" xmlns:xlink="http://www.w3.org/1999/xlink" x="0px" y="0px"
	 width="1514.725px" height="315.148px" viewBox="0 0 1514.725 315.148" enable-background="new 0 0 1514.725 315.148"
	 xml:space="preserve">
<g>
	<g>
		<g>
			<path fill="#FFFFFF" d="M1352.246,162.632v-61.296h-41.99v-4.82h41.99V11.949h25.035v84.567h103.368V11.949h24.63v150.683h-24.63
				v-61.296h-103.368v61.296H1352.246z"/>
		</g>
		<g>
			<path fill="#FFFFFF" d="M163.124,25.859v10.761h-25.036V25.45c0-6.357-3.974-10.85-11.912-13.479
				c-7.943-2.629-21.337-3.943-40.175-3.943c-18.31,0-31.434,1.293-39.368,3.893c-7.942,2.598-11.912,7.107-11.912,13.53v108.755
				c0,6.565,3.97,11.14,11.912,13.74c7.935,2.6,21.059,3.892,39.368,3.892c18.571,0,31.897-1.33,39.974-3.997
				c8.073-2.666,12.113-7.211,12.113-13.635v-11.994h25.036v11.586c0,8.065-6.127,13.887-18.375,17.474
				c-12.254,3.587-31.834,5.385-58.748,5.385c-26.65,0-45.968-1.775-57.942-5.333c-11.983-3.549-17.969-9.395-17.969-17.526V25.859
				c0-8.058,5.986-13.889,17.969-17.476C40.034,4.798,59.351,3,86.001,3c26.914,0,46.494,1.812,58.748,5.436
				C156.997,12.061,163.124,17.868,163.124,25.859z"/>
		</g>
		<g>
			<path fill="#FFFFFF" d="M1151.756,29.662v10.762h-25.035v-11.17c0-6.358-3.973-10.851-11.913-13.48
				c-7.943-2.628-21.336-3.943-40.174-3.943c-18.311,0-31.434,1.293-39.369,3.891c-7.943,2.6-11.912,7.108-11.912,13.532v108.755
				c0,6.565,3.969,11.141,11.912,13.739c7.935,2.599,21.058,3.892,39.369,3.892c18.57,0,31.897-1.329,39.973-3.996
				c8.073-2.666,12.113-7.211,12.113-13.635v-11.994h25.035V137.6c0,8.065-6.127,13.888-18.373,17.475
				c-12.254,3.587-31.834,5.384-58.749,5.384c-26.651,0-45.967-1.775-57.943-5.332c-11.983-3.55-17.969-9.395-17.969-17.527V29.662
				c0-8.058,5.986-13.888,17.969-17.475c11.976-3.587,31.292-5.385,57.943-5.385c26.914,0,46.495,1.812,58.749,5.437
				C1145.629,15.863,1151.756,21.67,1151.756,29.662z"/>
		</g>
		<g>
			<path fill="#FFFFFF" d="M318.086,133.801V25.862c0-8.061,5.987-13.892,17.966-17.479c11.977-3.586,31.297-5.381,57.943-5.381
				c26.914,0,46.498,1.813,58.752,5.433c12.246,3.625,18.369,9.432,18.369,17.427v107.939c0,8.062-6.124,13.888-18.369,17.475
				c-12.255,3.587-31.839,5.381-58.752,5.381c-26.646,0-45.966-1.775-57.943-5.329C324.074,147.775,318.086,141.934,318.086,133.801
				z M446.085,134.21V25.45c0-6.353-3.977-10.846-11.913-13.479c-7.946-2.629-21.336-3.943-40.178-3.943
				c-18.307,0-31.429,1.3-39.369,3.893c-7.939,2.598-11.912,7.11-11.912,13.53v108.76c0,6.494,3.973,11.054,11.912,13.683
				c7.939,2.633,21.062,3.948,39.369,3.948c18.573,0,31.897-1.333,39.978-4C442.045,145.179,446.085,140.634,446.085,134.21z"/>
		</g>
		<g>
			<path fill="#FFFFFF" d="M679.215,159.025V97.726h-41.99v-4.819h41.99V29.662c0-8.058,6.06-13.888,18.173-17.475
				C709.5,8.6,728.88,6.802,755.532,6.802c26.914,0,46.43,1.812,58.543,5.437c12.117,3.625,18.173,9.432,18.173,17.423v129.364
				h-24.63V97.726H704.25v61.299H679.215z M704.25,29.253v63.653h103.368V29.253c0-6.358-4.037-10.851-12.117-13.48
				c-8.073-2.628-21.396-3.943-39.969-3.943c-18.575,0-31.769,1.293-39.57,3.891C708.149,18.321,704.25,22.829,704.25,29.253z"/>
		</g>
	</g>
	<path fill="#FFFFFF" d="M46.191,284.124c0.869,1.04,1.504,2.22,1.913,3.55c0.404,1.336,0.605,2.74,0.605,4.226
		c0,2.013-0.334,3.906-1.006,5.666c-0.668,1.76-1.596,3.187-2.773,4.286c-1.85,1.679-3.869,2.829-6.065,3.445
		c-2.202,0.616-5.076,0.921-8.633,0.921H1v-1.263h2.184v-48.169H1v-1.262h29.569c2.548,0,4.326,0.082,5.333,0.252
		c1.652,0.283,3.29,0.915,4.913,1.887c2.015,1.21,3.579,2.814,4.686,4.835c1.103,2.013,1.656,4.144,1.656,6.387
		c0,2.324-0.575,4.492-1.724,6.505c-0.646,1.121-1.637,2.198-2.978,3.231c-1.292,0.847-1.953,1.277-1.975,1.3
		c0.729,0.289,1.329,0.557,1.805,0.802C43.685,281.54,44.989,282.668,46.191,284.124z M38.418,263.173
		c-0.894-0.699-1.8-1.143-2.706-1.329c-0.914-0.178-2.146-0.267-3.714-0.267c-0.675,0-1.195,0-1.56,0H9.233v15.454h22.008
		c1.537,0,2.856-0.126,3.944-0.378c1.092-0.253,2.08-0.729,2.962-1.427c0.885-0.698,1.561-1.626,2.036-2.756
		c0.479-1.135,0.713-2.324,0.713-3.586c0-1.122-0.2-2.191-0.602-3.194C39.886,264.688,39.262,263.842,38.418,263.173z
		 M39.64,297.484c0.755-0.95,1.322-1.96,1.701-3.022c0.379-1.07,0.565-2.058,0.565-2.986c0-1.15-0.23-2.22-0.691-3.215
		c-0.465-0.988-1.069-1.864-1.827-2.622c-0.925-0.898-2.109-1.552-3.55-1.968c-1.44-0.423-2.949-0.631-4.515-0.631H9.233v17.133
		h21.251c2.157,0,3.921-0.17,5.291-0.505C37.54,299.245,38.832,298.516,39.64,297.484z"/>
	<path fill="#FFFFFF" d="M129.959,256.489h-2.183v33.39c0,2.295-0.198,4.151-0.591,5.585c-0.53,1.96-1.544,3.772-3.045,5.437
		c-1.5,1.663-3.924,3.015-7.285,4.054c-3.357,1.033-6.944,1.56-10.755,1.56c-4.054,0-7.642-0.408-10.75-1.225
		c-3.613-0.951-6.357-2.391-8.233-4.323c-1.369-1.433-2.302-2.978-2.791-4.641c-0.491-1.665-0.735-3.677-0.735-6.031v-33.806h-2.184
		v-1.262h10.416v1.262H89.64v33.479c0,2.095,0.212,3.729,0.632,4.909c0.561,1.538,1.563,2.756,3.022,3.655
		c1.456,0.891,3.324,1.567,5.607,2.012c2.284,0.446,4.683,0.669,7.199,0.669c2.634,0,5.117-0.275,7.457-0.84
		c2.34-0.557,4.056-1.284,5.143-2.183c1.207-0.974,2.032-2.184,2.478-3.61c0.367-1.173,0.549-2.717,0.549-4.612v-33.479h-2.184
		v-1.262h10.416V256.489z"/>
	<path fill="#FFFFFF" d="M208.62,292.085c0,4.924-2.577,8.704-7.731,11.341c-4.448,2.265-10.078,3.401-16.881,3.401
		c-3.163,0-6.394-0.438-9.699-1.307c-2.577-0.669-5.083-1.567-7.52-2.681c-1.567-0.706-2.87-1.404-3.907-2.102l-2.432-1.597
		l-1.262,2.057l-1.137-0.587l5.087-9.12l1.088,0.594l-1.088,1.931c0.386,0.364,1.508,1.047,3.356,2.057
		c2.63,1.456,5.207,2.614,7.729,3.483c3.583,1.233,6.846,1.85,9.784,1.85c5.043,0,9.269-0.743,12.685-2.229
		c3.862-1.671,5.796-3.972,5.796-6.884c0-4.426-3.627-7.211-10.876-8.363c-6.751-0.832-13.499-1.685-20.245-2.562
		c-7.278-1.782-10.918-5.652-10.918-11.586c0-3.698,1.203-6.721,3.61-9.067c2.098-2.042,5.094-3.557,8.989-4.545
		c3.36-0.839,7.162-1.255,11.418-1.255c3.476,0,6.893,0.468,10.249,1.381c1.819,0.505,3.852,1.248,6.09,2.228l4.831,2.138
		l1.051-1.841l1.092,0.586l-5.042,9.158l-1.093-0.624l1.055-1.939c-1.737-1.396-4.366-2.673-7.875-3.816
		c-3.516-1.152-6.966-1.731-10.357-1.731c-5.176,0-9.335,0.677-12.469,2.02c-3.728,1.597-5.588,4.033-5.588,7.308
		c0,3.751,3.516,6.09,10.542,7.019c7.029,0.921,13.932,1.827,20.705,2.726C204.965,281.569,208.62,285.75,208.62,292.085z"/>
	<path fill="#FFFFFF" d="M245.93,306.218h-10.412v-1.263h2.183v-48.169h-2.183v-1.262h10.412v1.262h-2.184v48.169h2.184V306.218z"/>
	<path fill="#FFFFFF" d="M327.238,306.218h-10.413v-1.263h2.184l-34.607-38.425v38.425h2.187v1.263h-10.417v-1.263h2.184v-48.169
		h-2.184v-1.262h10.417v1.262l-2.195,0.008l34.615,37.927v-37.935h-2.184v-1.262h10.413v1.262h-2.18v48.169h2.18V306.218z"/>
	<path fill="#FFFFFF" d="M402.291,308.379h-1.263v-2.138h-42.918v-1.263h2.184v-48.169h-2.184v-1.262h42.918v-2.184h1.263v10.42
		h-1.263v-2.184h-34.686v15.455h23.516v-2.184h1.264v10.412h-1.264v-2.184h-23.516v17.096h34.686v-2.228h1.263V308.379z"/>
	<path fill="#FFFFFF" d="M479.858,292.078c0,4.931-2.577,8.711-7.728,11.34c-4.448,2.266-10.078,3.409-16.88,3.409
		c-3.164,0-6.402-0.438-9.703-1.307c-2.577-0.677-5.083-1.567-7.52-2.689c-1.567-0.705-2.87-1.403-3.907-2.102l-2.432-1.589
		l-1.263,2.057l-1.132-0.594l5.08-9.113l1.091,0.586l-1.091,1.93c0.394,0.364,1.515,1.048,3.36,2.065
		c2.633,1.456,5.21,2.614,7.728,3.483c3.587,1.233,6.848,1.85,9.789,1.85c5.039,0,9.264-0.751,12.681-2.229
		c3.865-1.678,5.796-3.972,5.796-6.884c0-4.426-3.624-7.219-10.88-8.363c-6.743-0.838-13.494-1.685-20.241-2.562
		c-7.282-1.789-10.917-5.652-10.917-11.593c0-3.691,1.2-6.714,3.613-9.067c2.094-2.043,5.095-3.558,8.986-4.538
		c3.357-0.839,7.167-1.255,11.423-1.255c3.471,0,6.883,0.46,10.249,1.381c1.819,0.505,3.847,1.248,6.09,2.228l4.827,2.138
		l1.05-1.841l1.092,0.586l-5.04,9.15l-1.09-0.624l1.047-1.932c-1.734-1.404-4.359-2.681-7.872-3.824
		c-3.512-1.144-6.966-1.724-10.353-1.724c-5.185,0-9.336,0.669-12.474,2.02c-3.724,1.59-5.588,4.033-5.588,7.301
		c0,3.75,3.517,6.09,10.542,7.019c7.03,0.921,13.928,1.834,20.71,2.733C476.205,281.569,479.858,285.75,479.858,292.078z"/>
	<path fill="#FFFFFF" d="M554.276,292.078c0,4.931-2.577,8.711-7.731,11.34c-4.449,2.266-10.078,3.409-16.881,3.409
		c-3.167,0-6.402-0.438-9.703-1.307c-2.572-0.677-5.083-1.567-7.519-2.689c-1.568-0.705-2.867-1.403-3.907-2.102l-2.432-1.589
		l-1.259,2.057l-1.136-0.594l5.08-9.113l1.096,0.586l-1.096,1.93c0.394,0.364,1.515,1.048,3.36,2.065
		c2.634,1.456,5.209,2.614,7.728,3.483c3.587,1.233,6.847,1.85,9.788,1.85c5.04,0,9.269-0.751,12.685-2.229
		c3.862-1.678,5.792-3.972,5.792-6.884c0-4.426-3.624-7.219-10.88-8.363c-6.743-0.838-13.494-1.685-20.237-2.562
		c-7.281-1.789-10.921-5.652-10.921-11.593c0-3.691,1.207-6.714,3.613-9.067c2.095-2.043,5.094-3.558,8.986-4.538
		c3.356-0.839,7.166-1.255,11.421-1.255c3.472,0,6.893,0.46,10.25,1.381c1.818,0.505,3.847,1.248,6.089,2.228l4.828,2.138
		l1.051-1.841l1.096,0.586l-5.043,9.15l-1.091-0.624l1.047-1.932c-1.73-1.404-4.359-2.681-7.872-3.824
		c-3.513-1.144-6.963-1.724-10.354-1.724c-5.179,0-9.338,0.669-12.472,2.02c-3.726,1.59-5.586,4.033-5.586,7.301
		c0,3.75,3.517,6.09,10.539,7.019c7.029,0.921,13.929,1.834,20.709,2.733C550.623,281.569,554.276,285.75,554.276,292.078z"/>
	<path fill="#FFFFFF" d="M662.167,292.085c0,4.924-2.582,8.704-7.728,11.341c-4.448,2.265-10.078,3.401-16.885,3.401
		c-3.164,0-6.398-0.438-9.703-1.307c-2.577-0.669-5.08-1.567-7.516-2.681c-1.567-0.706-2.87-1.404-3.906-2.102l-2.436-1.597
		l-1.263,2.057l-1.133-0.587l5.083-9.12l1.093,0.594l-1.093,1.931c0.394,0.364,1.511,1.047,3.357,2.057
		c2.633,1.456,5.213,2.614,7.731,3.483c3.582,1.233,6.847,1.85,9.784,1.85c5.039,0,9.265-0.743,12.682-2.229
		c3.865-1.671,5.8-3.972,5.8-6.884c0-4.426-3.632-7.211-10.88-8.363c-6.751-0.832-13.495-1.685-20.242-2.562
		c-7.281-1.782-10.92-5.652-10.92-11.586c0-3.698,1.203-6.721,3.612-9.067c2.098-2.042,5.092-3.557,8.986-4.545
		c3.36-0.839,7.167-1.255,11.422-1.255c3.473,0,6.889,0.468,10.249,1.381c1.823,0.505,3.851,1.248,6.091,2.228l4.83,2.138
		l1.047-1.841l1.092,0.586l-5.04,9.158l-1.088-0.624l1.048-1.939c-1.738-1.396-4.364-2.673-7.874-3.816
		c-3.516-1.152-6.966-1.731-10.356-1.731c-5.18,0-9.338,0.677-12.473,2.02c-3.725,1.597-5.584,4.033-5.584,7.308
		c0,3.751,3.513,6.09,10.538,7.019c7.034,0.921,13.933,1.827,20.709,2.726C658.51,281.569,662.167,285.75,662.167,292.085z"/>
	<path fill="#FFFFFF" d="M703.195,306.218h-10.416v-1.263h2.187v-48.176h-2.187v-1.255h10.416v1.255h-2.183v48.176h2.183V306.218z"
		/>
	<path fill="#FFFFFF" d="M789.793,305.766h-10.416v-1.264h2.184v-38.091l-20.326,40.268l-19.822-40.35v38.173h2.183v1.264h-10.419
		v-1.264h2.184v-48.169h-2.184v-1.262h12.686v1.262l-2.198,0.008L761.54,293.4l18.202-37.074l-2.169,0.007v-1.262h12.221v1.262
		h-2.187v48.169h2.187V305.766z"/>
	<path fill="#FFFFFF" d="M869.388,269.293c0,1.827-0.35,3.58-1.047,5.272c-0.698,1.701-1.708,3.231-3.022,4.604
		c-1.708,1.79-4.145,3.053-7.308,3.78c-1.931,0.445-4.089,0.669-6.469,0.669h-20.074v21.336h2.183v1.263h-10.416v-1.263h2.184
		v-48.176h-2.184v-1.255h30.409c2.098,0,3.832,0.126,5.207,0.378c2.324,0.424,4.266,1.255,5.837,2.495
		c1.566,1.249,2.74,2.823,3.527,4.731C869.002,265.03,869.388,267.08,869.388,269.293z M863.217,269.293
		c0-1.456-0.282-2.778-0.84-3.988c-0.559-1.195-1.443-2.191-2.646-2.978c-0.783-0.528-1.652-0.892-2.603-1.077
		c-0.951-0.178-2.017-0.261-3.193-0.261h-2.22h-20.245v17.253h20.326c1.679,0,3.049-0.112,4.114-0.327
		c1.567-0.342,2.89-0.921,3.966-1.73c1.081-0.81,1.909-1.827,2.481-3.044C862.927,271.922,863.217,270.645,863.217,269.293z"/>
	<path fill="#FFFFFF" d="M937.126,307.294h-1.258v-2.138h-39.773v-1.263h2.183v-48.176h-2.183v-1.255h10.412v1.255h-2.183v43.387
		h31.545v-2.229h1.258V307.294z"/>
	<path fill="#FFFFFF" d="M972.804,306.218h-10.416v-1.263h2.185v-48.176h-2.185v-1.255h10.416v1.255h-2.183v48.176h2.183V306.218z"
		/>
	<path fill="#FFFFFF" d="M1049.009,264.845h-1.259v-2.185h-36.201v15.456h25.532v-2.184h1.263v10.419h-1.263v-2.228h-25.532v21.923
		h2.184v1.263h-10.416v-1.263h2.18v-48.176h-2.18v-1.255h44.434v-2.183h1.259V264.845z"/>
	<path fill="#FFFFFF" d="M1082.473,306.218h-10.419v-1.263h2.184v-48.176h-2.184v-1.255h10.419v1.255h-2.183v48.176h2.183V306.218z"
		/>
	<path fill="#FFFFFF" d="M1162.9,298.487l-1.01,0.758l-1.345-1.642c-0.979,0.869-1.946,1.723-2.896,2.569
		c-2.547,1.954-5.336,3.55-8.355,4.783c-4.259,1.738-8.655,2.607-13.19,2.607c-9.042,0-16.186-2.555-21.422-7.649
		c-4.871-4.753-7.308-10.865-7.308-18.307c0-7.449,2.957-13.665,8.861-18.648c5.685-4.812,12.528-7.226,20.541-7.226
		c3.777,0,7.501,0.527,11.169,1.597c2.715,0.787,5.222,1.79,7.52,3.022c1.01,0.535,1.983,1.136,2.938,1.804l1.095-1.76l1.088,0.631
		l-5.332,8.941l-1.096-0.668l1.137-1.887c-0.896-0.757-1.82-1.433-2.77-2.02c-1.879-1.151-3.933-2.057-6.176-2.733
		c-3.052-0.913-6.297-1.381-9.744-1.381c-6.187,0-11.481,1.864-15.874,5.585c-4.535,3.832-6.803,8.636-6.803,14.4
		c0,6.134,2.157,11.125,6.464,14.958c4.233,3.75,9.632,5.629,16.212,5.629c3.81,0,7.408-0.751,10.791-2.228
		c2.521-1.092,4.82-2.518,6.896-4.286c1.062-0.891,1.916-1.752,2.563-2.562l-1.39-1.723l1.01-0.794L1162.9,298.487z"/>
	<path fill="#FFFFFF" d="M1237.838,306.218h-11.462v-1.263h2.098l-5.541-12.937h-24.508l-5.681,12.937h1.96v1.263h-10.62v-1.263
		h2.184l21.332-48.176h-2.18v-1.255h10.747v1.255h-2.184l21.675,48.176h2.18V306.218z M1220.427,286.567l-9.713-23.951
		l-10.142,23.951H1220.427z"/>
	<path fill="#FFFFFF" d="M1307.188,264.845h-1.259v-2.185h-19.364v43.387h2.184v1.263h-10.413v-1.263h2.184V262.66h-20.07v2.185
		h-1.267v-10.413h1.267v2.183h45.48v-2.183h1.259V264.845z"/>
	<path fill="#FFFFFF" d="M1342.59,306.218h-10.412v-1.263h2.188v-48.176h-2.188v-1.255h10.412v1.255h-2.183v48.176h2.183V306.218z"
		/>
	<path fill="#FFFFFF" d="M1425.583,280.195c0,7.582-2.603,13.873-7.81,18.855c-5.409,5.177-12.477,7.776-21.21,7.776
		c-8.369,0-15.351-2.384-20.917-7.145c-5.856-4.984-8.775-11.482-8.775-19.487c0-7.367,2.855-13.42,8.57-18.165
		c5.711-4.746,12.752-7.115,21.121-7.115c7.776,0,14.486,2.31,20.111,6.929C1422.617,266.708,1425.583,272.828,1425.583,280.195z
		 M1418.944,280.44c0-6.572-2.347-11.711-7.055-15.41c-4.17-3.275-9.28-4.909-15.325-4.909c-6.272,0-11.541,1.597-15.79,4.783
		c-4.849,3.639-7.274,8.74-7.274,15.291c0,6.357,2.18,11.518,6.536,15.477c4.352,3.965,9.907,5.941,16.65,5.941
		c6.614,0,11.997-2.042,16.167-6.135C1416.924,291.505,1418.944,286.493,1418.944,280.44z"/>
	<path fill="#FFFFFF" d="M1503.244,306.218h-10.419v-1.263h2.183l-34.601-38.425v38.425h2.18v1.263h-10.413v-1.263h2.184v-48.176
		h-2.184v-1.255h10.413v1.255l-2.19,0.007l34.611,37.935v-37.942h-2.183v-1.255h10.419v1.255h-2.184v48.176h2.184V306.218z"/>
</g>
</svg>
