<?xml version="1.0" encoding="utf-8"?>
<!-- Generator: Adobe Illustrator 16.0.0, SVG Export Plug-In . SVG Version: 6.00 Build 0)  -->
<!DOCTYPE svg PUBLIC "-//W3C//DTD SVG 1.1//EN" "http://www.w3.org/Graphics/SVG/1.1/DTD/svg11.dtd">
<svg version="1.1" id="Layer_1" xmlns="http://www.w3.org/2000/svg" xmlns:xlink="http://www.w3.org/1999/xlink" x="0px" y="0px"
	 width="862.697px" height="180.512px" viewBox="0 0 862.697 180.512" enable-background="new 0 0 862.697 180.512"
	 xml:space="preserve">
<g>
	<g>
		<path fill="#FFFFFF" d="M27.319,137.966h1.465v-0.845h-7.212v0.845h1.466l-14.31,32.307l-1.463,0.002v0.845h7.125v-0.845h-1.32
			l3.812-8.676h16.434l3.719,8.676h-1.407v0.845h7.689v-0.845h-1.463L27.319,137.966z M18.32,157.937l6.806-16.057l6.513,16.057
			H18.32z"/>
		<path fill="#FFFFFF" d="M147.715,139.051c-1.051-0.834-2.357-1.395-3.916-1.676c-0.919-0.169-2.084-0.254-3.493-0.254h-20.393
			v0.845h1.465v32.309h-1.465v0.845h6.985v-0.845h-1.463v-14.311h13.462c1.597,0,3.044-0.149,4.338-0.449
			c2.122-0.489,3.755-1.334,4.901-2.535c0.883-0.922,1.559-1.949,2.027-3.084c0.469-1.136,0.704-2.314,0.704-3.536
			c0-1.483-0.263-2.864-0.789-4.142C149.555,140.943,148.767,139.886,147.715,139.051z M146.151,148.938
			c-0.384,0.816-0.938,1.498-1.662,2.042c-0.722,0.545-1.609,0.93-2.66,1.156c-0.715,0.15-1.633,0.225-2.761,0.225h-13.632v-11.576
			h13.575h1.492c0.79,0,1.503,0.061,2.143,0.182c0.639,0.123,1.221,0.364,1.746,0.719c0.807,0.526,1.399,1.193,1.775,1.999
			c0.376,0.807,0.562,1.7,0.562,2.676C146.729,147.262,146.537,148.121,146.151,148.938z"/>
		<path fill="#FFFFFF" d="M255.802,139.051c-1.053-0.834-2.357-1.395-3.915-1.676c-0.92-0.169-2.084-0.254-3.493-0.254h-20.391
			v0.845h1.463v32.309h-1.463v0.845h6.986v-0.845h-1.468v-14.311h13.466c1.595,0,3.04-0.149,4.338-0.449
			c2.12-0.489,3.755-1.334,4.899-2.535c0.881-0.922,1.559-1.949,2.03-3.084c0.469-1.136,0.703-2.314,0.703-3.536
			c0-1.483-0.263-2.864-0.788-4.142C257.643,140.943,256.853,139.886,255.802,139.051z M254.239,148.938
			c-0.386,0.816-0.94,1.498-1.662,2.042c-0.724,0.545-1.611,0.93-2.664,1.156c-0.711,0.15-1.633,0.225-2.759,0.225h-13.634v-11.576
			h13.578h1.494c0.788,0,1.502,0.061,2.141,0.182c0.637,0.123,1.219,0.364,1.744,0.719c0.809,0.526,1.399,1.193,1.775,1.999
			c0.376,0.807,0.566,1.7,0.566,2.676C254.817,147.262,254.624,148.121,254.239,148.938z"/>
		<path fill="#FFFFFF" d="M357.228,155.685c0.883,0,2.009-0.283,3.382-0.847c1.144-0.469,2.11-1.089,2.898-1.857
			c0.922-0.902,1.617-1.92,2.086-3.056c0.469-1.136,0.704-2.325,0.704-3.564c0-1.427-0.281-2.793-0.845-4.097
			c-0.562-1.306-1.362-2.377-2.393-3.212c-1.035-0.834-2.329-1.395-3.889-1.676c-0.917-0.169-2.082-0.254-3.493-0.254h-21.519v0.845
			h1.465v32.309h-1.465v0.845h6.986v-0.845h-1.464v-14.311h12.967l9.013,14.303l-1.249,0.008v0.845h7.717v-0.845h-1.465
			L357.228,155.685z M354.44,152.36h-14.76v-11.576h14.703h1.492c0.788,0,1.504,0.061,2.143,0.182
			c0.637,0.123,1.219,0.364,1.746,0.719c0.789,0.505,1.379,1.165,1.773,1.971c0.394,0.807,0.592,1.68,0.592,2.62
			c0,0.939-0.194,1.817-0.578,2.634c-0.384,0.816-0.942,1.504-1.676,2.056c-0.734,0.556-1.623,0.944-2.676,1.17
			C356.486,152.285,355.566,152.36,354.44,152.36z"/>
		<path fill="#FFFFFF" d="M478.752,141.346c-3.776-3.097-8.271-4.645-13.493-4.645c-5.615,0-10.337,1.589-14.167,4.772
			c-3.833,3.184-5.747,7.244-5.747,12.183c0,5.371,1.963,9.727,5.888,13.07c3.735,3.191,8.411,4.787,14.026,4.787
			c5.858,0,10.6-1.734,14.224-5.211c3.493-3.341,5.239-7.556,5.239-12.645C484.723,148.717,482.732,144.614,478.752,141.346z
			 M476.189,163.908c-2.8,2.741-6.414,4.111-10.847,4.111c-4.523,0-8.247-1.326-11.166-3.984c-2.921-2.658-4.382-6.117-4.382-10.379
			c0-4.395,1.625-7.811,4.875-10.252c2.854-2.143,6.384-3.212,10.59-3.212c4.057,0,7.481,1.098,10.281,3.297
			c3.155,2.478,4.732,5.922,4.732,10.337C480.272,157.88,478.91,161.242,476.189,163.908z"/>
		<path fill="#FFFFFF" d="M581.798,137.966h1.465v-0.845h-7.212v0.845h1.466l-14.309,32.307l-1.463,0.002v0.845h7.125v-0.845h-1.32
			l3.812-8.676h16.434l3.719,8.676h-1.407v0.845h7.689v-0.845h-1.463L581.798,137.966z M572.799,157.937l6.806-16.057l6.513,16.057
			H572.799z"/>
		<path fill="#FFFFFF" d="M704.687,160.443l0.93,1.156c-0.433,0.544-1.005,1.116-1.718,1.718c-1.391,1.183-2.929,2.139-4.619,2.873
			c-2.272,0.996-4.686,1.494-7.24,1.494c-4.413,0-8.037-1.259-10.871-3.776c-2.895-2.571-4.338-5.915-4.338-10.026
			c0-3.869,1.521-7.091,4.563-9.662c2.949-2.499,6.497-3.748,10.646-3.748c2.31,0,4.487,0.312,6.535,0.93
			c1.502,0.453,2.882,1.063,4.142,1.831c0.637,0.394,1.257,0.845,1.858,1.353l-0.76,1.267l0.734,0.451l3.576-6l-0.734-0.422
			l-0.731,1.183c-0.639-0.451-1.294-0.855-1.971-1.211c-1.541-0.825-3.22-1.502-5.043-2.029c-2.458-0.712-4.957-1.069-7.491-1.069
			c-5.371,0-9.961,1.615-13.773,4.845c-3.962,3.344-5.943,7.512-5.943,12.506s1.633,9.09,4.899,12.279
			c3.513,3.42,8.3,5.126,14.366,5.126c3.042,0,5.989-0.583,8.843-1.747c2.03-0.825,3.897-1.896,5.607-3.21
			c0.637-0.562,1.286-1.136,1.942-1.718l0.901,1.1l0.677-0.509l-4.31-5.518L704.687,160.443z"/>
		<polygon fill="#FFFFFF" points="813.419,137.966 814.887,137.966 814.887,151.543 792.014,151.543 792.014,137.966 
			793.479,137.966 793.479,137.121 786.493,137.121 786.493,137.966 787.959,137.966 787.959,170.275 786.493,170.275 
			786.493,171.12 793.479,171.12 793.479,170.275 792.014,170.275 792.014,155.572 814.887,155.572 814.887,170.275 
			813.419,170.275 813.419,171.12 820.405,171.12 820.405,170.275 818.942,170.275 818.942,137.966 820.405,137.966 
			820.405,137.121 813.419,137.121 		"/>
		<polygon fill="#FFFFFF" points="807.576,11.106 807.576,57.14 751.308,57.14 751.308,11.106 737.681,11.106 737.681,57.14 
			714.823,57.14 714.823,59.763 737.681,59.763 737.681,93.13 751.308,93.13 751.308,59.763 807.576,59.763 807.576,93.13 
			820.983,93.13 820.983,11.106 		"/>
		<path fill="#FFFFFF" d="M80.385,9.193c-6.67-1.971-17.329-2.958-31.979-2.958c-14.507,0-25.022,0.977-31.541,2.929
			c-6.523,1.953-9.781,5.126-9.781,9.514v58.756c0,4.427,3.258,7.606,9.781,9.541c6.519,1.934,17.034,2.9,31.541,2.9
			c14.651,0,25.309-0.976,31.979-2.929c6.667-1.953,10.002-5.124,10.002-9.513v-6.306H76.759v6.529c0,3.497-2.199,5.971-6.594,7.42
			c-4.396,1.451-11.651,2.177-21.76,2.177c-9.967,0-17.11-0.706-21.43-2.121c-4.324-1.413-6.484-3.905-6.484-7.477V18.455
			c0-3.495,2.161-5.951,6.484-7.364c4.319-1.415,11.463-2.121,21.43-2.121c10.254,0,17.545,0.716,21.869,2.147
			c4.321,1.433,6.484,3.879,6.484,7.337v6.082h13.628v-5.858C90.387,14.328,87.051,11.166,80.385,9.193z"/>
		<path fill="#FFFFFF" d="M618.543,11.263c-6.67-1.971-17.329-2.957-31.979-2.957c-14.507,0-25.022,0.976-31.541,2.929
			c-6.523,1.953-9.781,5.126-9.781,9.514v58.756c0,4.426,3.258,7.606,9.781,9.541c6.519,1.934,17.034,2.9,31.541,2.9
			c14.65,0,25.309-0.976,31.979-2.929c6.666-1.953,10.001-5.124,10.001-9.512v-6.307h-13.628v6.529c0,3.497-2.199,5.971-6.594,7.42
			c-4.396,1.451-11.651,2.177-21.759,2.177c-9.967,0-17.111-0.706-21.43-2.12c-4.324-1.413-6.484-3.905-6.484-7.477V20.525
			c0-3.495,2.161-5.951,6.484-7.364c4.319-1.415,11.463-2.121,21.43-2.121c10.254,0,17.545,0.716,21.869,2.147
			c4.321,1.433,6.484,3.879,6.484,7.337v6.082h13.628v-5.858C628.545,16.397,625.209,13.236,618.543,11.263z"/>
		<path fill="#FFFFFF" d="M258.042,77.436V18.68c0-4.353-3.333-7.514-10-9.486c-6.67-1.971-17.331-2.958-31.981-2.958
			c-14.505,0-25.022,0.977-31.541,2.929c-6.521,1.954-9.779,5.125-9.779,9.514v58.756c0,4.427,3.259,7.606,9.779,9.541
			c6.519,1.935,17.036,2.9,31.541,2.9c14.65,0,25.311-0.976,31.981-2.929C254.708,84.996,258.042,81.825,258.042,77.436z
			 M244.416,77.659c0,3.497-2.199,5.971-6.593,7.42c-4.398,1.451-11.651,2.177-21.762,2.177c-9.965,0-17.108-0.715-21.43-2.148
			c-4.322-1.431-6.484-3.914-6.484-7.449V18.457c0-3.496,2.163-5.952,6.484-7.366c4.322-1.413,11.465-2.121,21.43-2.121
			c10.256,0,17.545,0.717,21.871,2.149c4.32,1.432,6.484,3.878,6.484,7.337V77.659z"/>
		<path fill="#FFFFFF" d="M454.622,91.166V20.749c0-4.352-3.297-7.513-9.892-9.486c-6.594-1.971-17.218-2.957-31.868-2.957
			c-14.507,0-25.057,0.976-31.65,2.929c-6.593,1.953-9.892,5.126-9.892,9.514v34.427h-22.857v2.622h22.857v33.368h13.627V57.798
			h56.268v33.368H454.622z M384.946,55.176V20.525c0-3.495,2.123-5.951,6.375-7.364c4.247-1.415,11.429-2.121,21.54-2.121
			c10.11,0,17.363,0.716,21.757,2.147c4.398,1.433,6.596,3.879,6.596,7.337v34.651H384.946z"/>
	</g>
	<path fill="#FFFFFF" d="M845.045,131.017c3.735,0,6.743,0.976,9.029,2.93c1.283,1.087,2.246,2.416,2.886,3.987
		c0.53,1.292,0.792,2.682,0.792,4.171c0,2.018-0.576,3.903-1.722,5.661c-1.261,1.944-3.016,3.346-5.262,4.205
		c-1.676,0.639-3.572,0.96-5.694,0.96c-3.713,0-6.709-0.977-8.985-2.932c-1.271-1.095-2.236-2.424-2.885-3.985
		c-0.529-1.281-0.792-2.631-0.792-4.047c0-2.098,0.568-4.032,1.706-5.801c1.241-1.911,3-3.307,5.277-4.185
		C840.988,131.368,842.872,131.048,845.045,131.017z M845.045,132.847c-3.301,0-5.907,0.919-7.823,2.761
		c-1.759,1.685-2.638,3.811-2.638,6.375c0,2.543,0.879,4.661,2.638,6.356c1.916,1.841,4.534,2.761,7.853,2.761
		c3.331,0,5.955-0.92,7.867-2.761c1.759-1.685,2.64-3.763,2.64-6.234c0-2.686-0.881-4.853-2.64-6.497
		c-1.043-0.984-2.167-1.675-3.367-2.079C848.241,133.083,846.731,132.857,845.045,132.847z M841.981,143.238v4.017
		c0,0.166,0.041,0.289,0.127,0.373c0.081,0.081,0.234,0.148,0.465,0.199v0.497h-4.111v-0.497c0.224-0.051,0.382-0.118,0.465-0.199
		c0.083-0.084,0.125-0.207,0.125-0.373V136.69c0-0.174-0.04-0.301-0.117-0.377c-0.079-0.079-0.236-0.149-0.473-0.21v-0.496
		l7.917,0.014c0.974,0,1.744,0.058,2.316,0.171c0.568,0.114,1.059,0.311,1.472,0.589c0.986,0.653,1.478,1.676,1.478,3.071
		c0,2.088-1.11,3.308-3.329,3.659l2.331,3.304c0.437,0.61,0.748,0.996,0.942,1.155c0.19,0.162,0.44,0.247,0.754,0.256v0.497h-4.669
		v-0.497c0.305-0.03,0.459-0.109,0.459-0.232c0-0.063-0.138-0.304-0.415-0.729l-2.563-3.628H841.981z M841.981,140.958h4.117
		c0.987,0,1.646-0.088,1.977-0.265c0.424-0.238,0.639-0.662,0.639-1.271c0-0.601-0.214-1.019-0.639-1.256
		c-0.332-0.177-0.99-0.264-1.977-0.264h-4.117V140.958z"/>
</g>
</svg>
