<?xml version="1.0" encoding="utf-8"?>
<!-- Generator: Adobe Illustrator 16.0.0, SVG Export Plug-In . SVG Version: 6.00 Build 0)  -->
<!DOCTYPE svg PUBLIC "-//W3C//DTD SVG 1.1//EN" "http://www.w3.org/Graphics/SVG/1.1/DTD/svg11.dtd">
<svg version="1.1" id="Layer_1" xmlns="http://www.w3.org/2000/svg" xmlns:xlink="http://www.w3.org/1999/xlink" x="0px" y="0px"
	 width="2230.847px" height="101.603px" viewBox="0 0 2230.847 101.603" enable-background="new 0 0 2230.847 101.603"
	 xml:space="preserve">
<g>
	<path fill="#FFFFFF" d="M2206.186,11.341c5.886,0,10.63,1.541,14.232,4.619c2.023,1.712,3.54,3.806,4.55,6.282
		c0.831,2.037,1.247,4.229,1.247,6.573c0,3.177-0.906,6.151-2.715,8.922c-1.989,3.063-4.752,5.272-8.292,6.624
		c-2.64,1.009-5.631,1.514-8.975,1.514c-5.854,0-10.573-1.541-14.159-4.619c-2.005-1.727-3.521-3.82-4.548-6.283
		c-0.833-2.019-1.247-4.146-1.247-6.377c0-3.309,0.896-6.355,2.688-9.143c1.957-3.014,4.728-5.213,8.316-6.598
		C2199.794,11.896,2202.762,11.39,2206.186,11.341z M2206.186,14.226c-5.201,0-9.311,1.449-12.328,4.35
		c-2.771,2.656-4.158,6.005-4.158,10.046c0,4.008,1.386,7.348,4.158,10.02c3.018,2.9,7.144,4.35,12.376,4.35
		c5.251,0,9.383-1.449,12.401-4.35c2.771-2.656,4.158-5.931,4.158-9.826c0-4.235-1.387-7.649-4.158-10.24
		c-1.647-1.548-3.416-2.64-5.308-3.274C2211.225,14.6,2208.844,14.242,2206.186,14.226z M2201.359,30.601v6.333
		c0,0.261,0.065,0.455,0.196,0.586c0.129,0.129,0.374,0.235,0.731,0.315v0.782h-6.476v-0.782c0.358-0.081,0.603-0.186,0.734-0.315
		c0.129-0.131,0.196-0.325,0.196-0.586v-16.65c0-0.275-0.063-0.475-0.184-0.596c-0.123-0.121-0.372-0.232-0.746-0.33v-0.782
		l12.479,0.024c1.534,0,2.749,0.091,3.646,0.269c0.897,0.18,1.672,0.489,2.325,0.93c1.55,1.027,2.325,2.64,2.325,4.839
		c0,3.291-1.749,5.213-5.248,5.767l3.677,5.207c0.685,0.962,1.178,1.569,1.481,1.821c0.301,0.253,0.698,0.386,1.188,0.402v0.782
		h-7.359v-0.782c0.483-0.048,0.724-0.172,0.724-0.366c0-0.099-0.216-0.481-0.651-1.15l-4.039-5.718H2201.359z M2201.359,27.009
		h6.491c1.552,0,2.589-0.14,3.113-0.417c0.669-0.374,1.004-1.043,1.004-2.003c0-0.946-0.335-1.605-1.004-1.981
		c-0.523-0.277-1.561-0.415-3.113-0.415h-6.491V27.009z"/>
	<g>
		<g>
			<path fill="#FFFFFF" d="M1704.66,93.365V59.999h-22.857v-2.624h22.857V11.341h13.628v46.034h56.268V11.341h13.407v82.023h-13.407
				V59.999h-56.268v33.366H1704.66z"/>
		</g>
		<g>
			<path fill="#FFFFFF" d="M1057.366,20.983v5.857h-13.628v-6.08c0-3.46-2.163-5.906-6.484-7.337
				c-4.324-1.431-11.615-2.146-21.869-2.146c-9.967,0-17.11,0.703-21.43,2.118c-4.324,1.415-6.484,3.869-6.484,7.366v59.201
				c0,3.574,2.161,6.064,6.484,7.479c4.32,1.415,11.463,2.119,21.43,2.119c10.108,0,17.363-0.724,21.76-2.175
				c4.394-1.452,6.593-3.926,6.593-7.423v-6.529h13.628v6.307c0,4.391-3.335,7.561-10.001,9.513
				c-6.67,1.953-17.329,2.931-31.979,2.931c-14.507,0-25.022-0.966-31.541-2.902c-6.522-1.933-9.781-5.114-9.781-9.541V20.983
				c0-4.386,3.259-7.56,9.781-9.513c6.519-1.953,17.034-2.931,31.541-2.931c14.65,0,25.309,0.986,31.979,2.959
				C1054.031,13.472,1057.366,16.633,1057.366,20.983z"/>
		</g>
		<g>
			<path fill="#FFFFFF" d="M1595.524,20.983v5.857h-13.627v-6.08c0-3.46-2.163-5.906-6.484-7.337
				c-4.324-1.431-11.615-2.146-21.869-2.146c-9.967,0-17.11,0.703-21.43,2.118c-4.323,1.415-6.484,3.869-6.484,7.366v59.201
				c0,3.574,2.161,6.064,6.484,7.479c4.32,1.415,11.463,2.119,21.43,2.119c10.109,0,17.363-0.724,21.76-2.175
				c4.395-1.452,6.594-3.926,6.594-7.423v-6.529h13.627v6.307c0,4.391-3.335,7.561-10.001,9.513
				c-6.67,1.953-17.329,2.931-31.979,2.931c-14.507,0-25.022-0.966-31.541-2.902c-6.523-1.933-9.781-5.114-9.781-9.541V20.983
				c0-4.386,3.258-7.56,9.781-9.513c6.519-1.953,17.034-2.931,31.541-2.931c14.651,0,25.309,0.986,31.979,2.959
				C1592.189,13.472,1595.524,16.633,1595.524,20.983z"/>
		</g>
		<g>
			<path fill="#FFFFFF" d="M1141.72,79.741V20.985c0-4.388,3.258-7.562,9.779-9.515c6.519-1.953,17.036-2.929,31.541-2.929
				c14.65,0,25.311,0.986,31.981,2.957c6.666,1.973,9.999,5.134,9.999,9.486v58.755c0,4.389-3.333,7.561-9.999,9.513
				c-6.671,1.953-17.331,2.929-31.981,2.929c-14.505,0-25.022-0.966-31.541-2.9C1144.979,87.347,1141.72,84.167,1141.72,79.741z
				 M1211.396,79.963V20.761c0-3.458-2.165-5.904-6.484-7.337c-4.326-1.431-11.615-2.146-21.871-2.146
				c-9.965,0-17.109,0.708-21.431,2.118c-4.321,1.415-6.484,3.871-6.484,7.366v59.203c0,3.535,2.163,6.018,6.484,7.449
				c4.322,1.433,11.465,2.148,21.431,2.148c10.11,0,17.363-0.726,21.761-2.177C1209.196,85.934,1211.396,83.46,1211.396,79.963z"/>
		</g>
		<g>
			<path fill="#FFFFFF" d="M1338.298,93.472V60.104h-22.857V57.48h22.857V23.053c0-4.387,3.299-7.56,9.893-9.513
				s17.143-2.931,31.65-2.931c14.65,0,25.275,0.986,31.868,2.959c6.596,1.973,9.893,5.134,9.893,9.484v70.419h-13.408V60.104
				h-56.268v33.368H1338.298z M1351.926,22.831v34.65h56.268v-34.65c0-3.46-2.197-5.906-6.596-7.337
				c-4.394-1.431-11.646-2.146-21.757-2.146s-17.292,0.704-21.54,2.118C1354.048,16.88,1351.926,19.334,1351.926,22.831z"/>
		</g>
	</g>
	<path fill="#FFFFFF" d="M44.363,81.597c0,4.032-2.106,7.123-6.321,9.275c-3.642,1.855-8.245,2.783-13.812,2.783
		c-2.587,0-5.233-0.355-7.936-1.065c-2.106-0.55-4.156-1.281-6.149-2.199c-1.284-0.571-2.347-1.144-3.196-1.716L4.958,87.37
		l-1.031,1.682L3,88.573l4.156-7.457l0.894,0.481l-0.894,1.58c0.321,0.3,1.237,0.859,2.749,1.684
		c2.153,1.19,4.261,2.143,6.321,2.853c2.933,1.007,5.601,1.51,8.004,1.51c4.124,0,7.582-0.606,10.375-1.819
		c3.162-1.374,4.742-3.252,4.742-5.636c0-3.617-2.967-5.896-8.898-6.836c-5.521-0.687-11.041-1.385-16.559-2.096
		c-5.955-1.466-8.933-4.625-8.933-9.482c0-3.022,0.984-5.496,2.953-7.42c1.718-1.672,4.168-2.907,7.354-3.709
		c2.747-0.687,5.862-1.031,9.343-1.031c2.84,0,5.636,0.378,8.383,1.134c1.489,0.412,3.149,1.019,4.982,1.821l3.949,1.75l0.859-1.51
		l0.894,0.479l-4.122,7.491l-0.893-0.516l0.858-1.581c-1.421-1.146-3.567-2.187-6.441-3.127c-2.875-0.938-5.698-1.409-8.47-1.409
		c-4.236,0-7.639,0.55-10.201,1.649c-3.046,1.306-4.57,3.299-4.57,5.977c0,3.07,2.874,4.982,8.623,5.739
		c5.748,0.756,11.394,1.499,16.937,2.233C41.373,72.998,44.363,76.422,44.363,81.597z"/>
	<path fill="#FFFFFF" d="M147.3,93.159h-8.52v-1.031h1.785V52.724h-1.785v-1.031h8.52v1.031h-1.787v39.403h1.787V93.159z"/>
	<path fill="#FFFFFF" d="M291.155,92.785h-8.521v-1.03h1.787V60.595l-16.627,32.936l-16.215-33.004v31.228h1.787v1.03h-8.52v-1.03
		h1.787V52.35h-1.787v-1.031h10.375v1.031l-1.799,0.006l14.622,30.312l14.887-30.326l-1.773,0.008v-1.031h9.996v1.031h-1.785v39.404
		h1.785V92.785z"/>
	<path fill="#FFFFFF" d="M424.215,62.962c0,1.488-0.285,2.925-0.857,4.312c-0.574,1.385-1.399,2.64-2.474,3.762
		c-1.396,1.465-3.39,2.496-5.977,3.09c-1.581,0.368-3.345,0.55-5.292,0.55h-16.422v17.452h1.787v1.031h-8.52v-1.031h1.787V52.724
		h-1.787v-1.031h24.872c1.718,0,3.137,0.103,4.259,0.309c1.902,0.344,3.493,1.025,4.776,2.043c1.282,1.019,2.244,2.309,2.887,3.865
		C423.896,59.469,424.215,61.153,424.215,62.962z M419.167,62.962c0-1.192-0.229-2.28-0.688-3.264s-1.181-1.797-2.165-2.44
		c-0.641-0.435-1.35-0.726-2.128-0.875c-0.78-0.15-1.649-0.225-2.611-0.225h-1.821h-16.559V70.28h16.628
		c1.374,0,2.496-0.092,3.367-0.275c1.282-0.274,2.365-0.744,3.246-1.409c0.882-0.665,1.557-1.493,2.028-2.49
		C418.932,65.109,419.167,64.06,419.167,62.962z"/>
	<path fill="#FFFFFF" d="M547.784,94.98h-1.031v-1.753H514.22v-1.03h1.787V52.793h-1.787v-1.031h8.52v1.031h-1.787v35.489h25.8
		V86.46h1.031V94.98z"/>
	<path fill="#FFFFFF" d="M652.113,93.227h-8.52v-1.03h1.785V52.793h-1.785v-1.031h8.52v1.031h-1.787v39.404h1.787V93.227z"/>
	<path fill="#FFFFFF" d="M787.317,58.426h-1.029v-1.787h-29.614v12.644h20.889v-1.787h1.029v8.521h-1.029v-1.821h-20.889v17.933
		h1.787v1.031h-8.52v-1.031h1.787V52.724h-1.787v-1.031h36.347v-1.787h1.029V58.426z"/>
	<path fill="#FFFFFF" d="M888.642,93.227h-8.52v-1.03h1.785V52.793h-1.785v-1.031h8.52v1.031h-1.787v39.404h1.787V93.227z"/>
	<path fill="#FFFFFF" d="M1882.575,92.312h-8.52v-1.031h1.785V51.877h-1.785v-1.031h8.52v1.031h-1.787v39.404h1.787V92.312z"/>
	<path fill="#FFFFFF" d="M2021.443,92.312h-8.52v-1.031h1.787l-28.309-31.434v31.434h1.787v1.031h-8.52v-1.031h1.787V51.877h-1.787
		v-1.031h8.52v1.031l-1.793,0.006l28.314,31.029V51.877h-1.787v-1.031h8.52v1.031h-1.787v39.404h1.787V92.312z"/>
	<path fill="#FFFFFF" d="M2156.593,72.917h-1.787v10.959h1.375v0.516c-2.108,2.016-3.505,3.287-4.192,3.813
		c-1.878,1.443-3.928,2.521-6.149,3.229c-2.771,0.894-6.115,1.341-10.032,1.341c-7.466,0-13.375-2.072-17.727-6.218
		c-4.1-3.894-6.149-8.876-6.149-14.945c0-6.229,2.233-11.324,6.699-15.288c4.467-3.962,10.191-5.943,17.177-5.943
		c3.046,0,5.886,0.356,8.52,1.065c2.106,0.572,4.089,1.384,5.943,2.438c1.306,0.756,2.565,1.639,3.78,2.646l0.962-1.443l0.859,0.55
		l-4.639,7.18l-0.859-0.584l0.997-1.51c-1.122-0.778-2.231-1.569-3.331-2.371c-1.627-1.053-3.265-1.844-4.914-2.371
		c-2.199-0.709-4.637-1.065-7.317-1.065c-5.152,0-9.528,1.537-13.122,4.605c-3.733,3.184-5.601,7.214-5.601,12.092
		c0,5.176,1.787,9.253,5.36,12.23c3.388,2.84,7.843,4.259,13.363,4.259c3.756,0,6.871-0.56,9.345-1.682
		c1.122-0.503,2.749-1.58,4.877-3.229v-6.355h-12.057v1.787h-1.031v-8.521h1.031v1.785h18.621V72.917z"/>
</g>
</svg>
